Coordinates
version=1
nRows=17
nColumns=24
inDegrees=yes

Units are S.I. units (second, meters, Newtons, ...)
Angles are in degrees.

endheader
time	pelvis_tilt	pelvis_list	pelvis_rotation	pelvis_tx	pelvis_ty	pelvis_tz	hip_flexion_r	hip_adduction_r	hip_rotation_r	knee_angle_r	ankle_angle_r	subtalar_angle_r	mtp_angle_r	hip_flexion_l	hip_adduction_l	hip_rotation_l	knee_angle_l	ankle_angle_l	subtalar_angle_l	mtp_angle_l	lumbar_extension	lumbar_bending	lumbar_rotation
      1.53766667	     -4.07099771	      0.98206180	     -4.36893635	      0.52826143	      1.07489730	      0.29864384	     23.04479659	     -4.02910025	     -6.49272793	    -63.90305235	      5.37466175	     -2.72947039	      4.93858209	     10.08223762	      3.11892695	      1.21720265	    -13.90894873	     11.05744902	      3.95800562	      0.13551373	     -2.35979791	     -0.25543674	     -1.01991269
      1.54183333	     -4.08083594	      0.92698705	     -4.22741907	      0.53314136	      1.07529183	      0.29829440	     23.44957004	     -3.95015125	     -6.68627514	    -63.22583989	      5.65630936	     -2.61235233	      4.95982834	      9.62705802	      3.09899283	      1.30571006	    -13.53026026	     11.09504468	      4.05381994	      0.15098177	     -2.34870045	     -0.20085660	     -1.11889948
      1.54600000	     -4.08488471	      0.89744880	     -4.09608653	      0.53800458	      1.07561847	      0.29794569	     23.85334339	     -3.90403379	     -6.86808652	    -62.54501995	      5.93402568	     -2.46966235	      4.98886688	      9.16072632	      3.10865643	      1.41720410	    -13.13470837	     11.15489993	      4.10520209	      0.17757594	     -2.34539797	     -0.14767345	     -1.30381107
      1.55016667	     -4.11001265	      0.86392832	     -3.96511334	      0.54286204	      1.07587268	      0.29761962	     24.26866448	     -3.84748168	     -7.04337526	    -61.83207781	      6.19673986	     -2.37648810	      5.01217289	      8.72678548	      3.10819083	      1.51924686	    -12.75994298	     11.20712443	      4.16426803	      0.20306024	     -2.31456142	     -0.10353205	     -1.43313242
      1.55433333	     -4.12386706	      0.81004055	     -3.83599000	      0.54770363	      1.07612203	      0.29731395	     24.65480208	     -3.76574279	     -7.21745205	    -61.07810359	      6.44563222	     -2.32980255	      5.02483920	      8.29116461	      3.08115131	      1.59972140	    -12.40791632	     11.26152700	      4.25440174	      0.21911265	     -2.30381586	     -0.04925341	     -1.51123407
      1.55850000	     -4.13972943	      0.78761903	     -3.71929211	      0.55253613	      1.07629356	      0.29702540	     25.04921212	     -3.71773214	     -7.37110949	    -60.32180673	      6.68357878	     -2.26859062	      5.03840617	      7.85354787	      3.08865465	      1.70075109	    -12.04329245	     11.33687697	      4.30090708	      0.24546097	     -2.28530260	     -0.00950821	     -1.66075553
      1.56266667	     -4.16893166	      0.77076596	     -3.61389483	      0.55734721	      1.07639658	      0.29678677	     25.45438149	     -3.66420902	     -7.50237825	    -59.54804313	      6.91626762	     -2.28958811	      5.04297616	      7.44200927	      3.09320160	      1.76092996	    -11.69925040	     11.40105904	      4.40242801	      0.25575634	     -2.25581170	      0.01008885	     -1.70245767
      1.56683333	     -4.17605812	      0.73772923	     -3.49755456	      0.56214552	      1.07650733	      0.29652580	     25.81507602	     -3.60167827	     -7.64711406	    -58.73155055	      7.12490094	     -2.27579317	      5.04595218	      7.00951840	      3.08600396	      1.87584238	    -11.36500441	     11.48120942	      4.41559255	      0.28612305	     -2.25764509	      0.04982686	     -1.86786579
      1.57100000	     -4.22228878	      0.72787530	     -3.40374038	      0.56694372	      1.07648154	      0.29632700	     26.22464117	     -3.54813265	     -7.75557363	    -57.91723599	      7.34351304	     -2.33236472	      5.04642131	      6.62751044	      3.09251129	      1.93089943	    -11.04403939	     11.55964493	      4.50945176	      0.29661983	     -2.20895127	      0.05767123	     -1.89767028
      1.57516667	     -4.25572878	      0.69582923	     -3.29638699	      0.57172211	      1.07646014	      0.29612005	     26.59719969	     -3.47312940	     -7.87307821	    -57.05587942	      7.53443062	     -2.40530875	      5.04192182	      6.24511390	      3.07662329	      2.01360552	    -10.75426592	     11.64568974	      4.56179621	      0.31351129	     -2.18242052	      0.08770147	     -1.97392337
      1.57933333	     -4.28281481	      0.67787973	     -3.20117518	      0.57649945	      1.07640865	      0.29593989	     26.95949232	     -3.41010869	     -7.97616594	    -56.18164039	      7.69759482	     -2.52231109	      5.02994672	      5.84942885	      3.07457303	      2.10240895	    -10.44922974	     11.73745583	      4.59728925	      0.33652497	     -2.15994371	      0.11093029	     -2.07280869
      1.58350000	     -4.31859831	      0.67711103	     -3.11608908	      0.58124977	      1.07627358	      0.29579631	     27.33334974	     -3.35607384	     -8.05048059	    -55.30194432	      7.84512279	     -2.66793192	      5.00551598	      5.46825587	      3.08871581	      2.19779387	    -10.15096929	     11.83177271	      4.62245160	      0.37040176	     -2.13454610	      0.11094450	     -2.17147931
      1.58766667	     -4.36597037	      0.68082428	     -3.03129754	      0.58600847	      1.07607681	      0.29566553	     27.70925925	     -3.30597807	     -8.12316472	    -54.40288096	      7.99806012	     -2.83046328	      4.98179170	      5.11031600	      3.10358600	      2.26877954	     -9.87642642	     11.93280739	      4.66469451	      0.39684215	     -2.08371991	      0.10162376	     -2.22201637
      1.59183333	     -4.40616331	      0.68651151	     -2.94981092	      0.59074576	      1.07585696	      0.29555955	     28.06843099	     -3.25201680	     -8.17878362	    -53.48364875	      8.15360599	     -3.01548934	      4.96071582	      4.75203272	      3.11833266	      2.33679156	     -9.61640744	     12.03001325	      4.71816258	      0.41604242	     -2.05707839	      0.08551652	     -2.26190973
      1.59600000	     -4.44615666	      0.70700401	     -2.87544795	      0.59548284	      1.07558410	      0.29547351	     28.42590238	     -3.21094597	     -8.22369280	    -52.55893496	      8.28464573	     -3.23188352	      4.93681155	      4.39195275	      3.14821959	      2.40870452	     -9.35121326	     12.13983383	      4.76664956	      0.43394429	     -2.03029025	      0.05919709	     -2.30363644
      1.60016667	     -4.47301636	      0.72090772	     -2.80206793	      0.60019372	      1.07530166	      0.29540807	     28.75490120	     -3.15653808	     -8.25280318	    -51.60171576	      8.37972993	     -3.48952129	      4.90360860	      4.02768513	      3.16972645	      2.48254805	     -9.10805695	     12.25057636	      4.79684050	      0.45424579	     -2.01379085	      0.02746134	     -2.35069820
      1.60433333	     -4.51732824	      0.75424993	     -2.73548966	      0.60492513	      1.07492941	      0.29535521	     29.10425875	     -3.12261834	     -8.27754605	    -50.65169251	      8.48752182	     -3.74249722	      4.87153780	      3.67787906	      3.21016862	      2.54917045	     -8.85464708	     12.36604457	      4.83756517	      0.47194913	     -1.99146156	     -0.01972599	     -2.38658824
